<?xml version="1.0" encoding="UTF-8" standalone="no"?>
<!DOCTYPE svg PUBLIC "-//W3C//DTD SVG 1.1//EN"
 "http://www.w3.org/Graphics/SVG/1.1/DTD/svg11.dtd">
<!-- Generated by graphviz version 2.40.1 (20161225.0304)
 -->
<!-- Title: game_server_example Pages: 1 -->
<svg width="1274pt" height="219pt"
 viewBox="0.00 0.00 1274.00 219.00" xmlns="http://www.w3.org/2000/svg" xmlns:xlink="http://www.w3.org/1999/xlink">
<g id="graph0" class="graph" transform="scale(1 1) rotate(0) translate(4 215)">
<title>game_server_example</title>
<polygon fill="#ffffff" stroke="transparent" points="-4,4 -4,-215 1270,-215 1270,4 -4,4"/>
<!-- schema_migrations -->
<g id="node1" class="node">
<title>schema_migrations</title>
<polygon fill="#efefef" stroke="transparent" points="43.5,-117.5 43.5,-152.5 310.5,-152.5 310.5,-117.5 43.5,-117.5"/>
<polygon fill="none" stroke="#000000" points="43.5,-117.5 43.5,-152.5 310.5,-152.5 310.5,-117.5 43.5,-117.5"/>
<text text-anchor="start" x="50.3647" y="-130.3" font-family="Arial Bold" font-size="18.00" fill="#000000">schema_migrations</text>
<text text-anchor="start" x="206.3815" y="-130.3" font-family="Arial" font-size="14.00" fill="#000000"> </text>
<text text-anchor="start" x="210.2721" y="-130.3" font-family="Arial" font-size="14.00" fill="#666666">[BASE TABLE]</text>
<polygon fill="none" stroke="#000000" points="43.5,-87.5 43.5,-117.5 310.5,-117.5 310.5,-87.5 43.5,-87.5"/>
<text text-anchor="start" x="50.5" y="-98.9" font-family="Arial" font-size="14.00" fill="#000000">version </text>
<text text-anchor="start" x="99.5056" y="-98.9" font-family="Arial" font-size="14.00" fill="#666666">[bigint]</text>
<polygon fill="none" stroke="#000000" points="43.5,-57.5 43.5,-87.5 310.5,-87.5 310.5,-57.5 43.5,-57.5"/>
<text text-anchor="start" x="50.5" y="-68.9" font-family="Arial" font-size="14.00" fill="#000000">dirty </text>
<text text-anchor="start" x="80.831" y="-68.9" font-family="Arial" font-size="14.00" fill="#666666">[tinyint(1)]</text>
</g>
<!-- user_coin -->
<g id="node2" class="node">
<title>user_coin</title>
<polygon fill="#efefef" stroke="transparent" points="414.5,-117.5 414.5,-152.5 603.5,-152.5 603.5,-117.5 414.5,-117.5"/>
<polygon fill="none" stroke="#000000" points="414.5,-117.5 414.5,-152.5 603.5,-152.5 603.5,-117.5 414.5,-117.5"/>
<text text-anchor="start" x="421.3644" y="-130.3" font-family="Arial Bold" font-size="18.00" fill="#000000">user_coin</text>
<text text-anchor="start" x="499.3818" y="-130.3" font-family="Arial" font-size="14.00" fill="#000000"> </text>
<text text-anchor="start" x="503.2724" y="-130.3" font-family="Arial" font-size="14.00" fill="#666666">[BASE TABLE]</text>
<polygon fill="none" stroke="#000000" points="414.5,-87.5 414.5,-117.5 603.5,-117.5 603.5,-87.5 414.5,-87.5"/>
<text text-anchor="start" x="421.5" y="-98.9" font-family="Arial" font-size="14.00" fill="#000000">user_id </text>
<text text-anchor="start" x="471.2882" y="-98.9" font-family="Arial" font-size="14.00" fill="#666666">[bigint]</text>
<polygon fill="none" stroke="#000000" points="414.5,-57.5 414.5,-87.5 603.5,-87.5 603.5,-57.5 414.5,-57.5"/>
<text text-anchor="start" x="421.5" y="-68.9" font-family="Arial" font-size="14.00" fill="#000000">num </text>
<text text-anchor="start" x="452.6164" y="-68.9" font-family="Arial" font-size="14.00" fill="#666666">[bigint]</text>
</g>
<!-- user_item -->
<g id="node3" class="node">
<title>user_item</title>
<polygon fill="#efefef" stroke="transparent" points="707.5,-132.5 707.5,-167.5 897.5,-167.5 897.5,-132.5 707.5,-132.5"/>
<polygon fill="none" stroke="#000000" points="707.5,-132.5 707.5,-167.5 897.5,-167.5 897.5,-132.5 707.5,-132.5"/>
<text text-anchor="start" x="714.3703" y="-145.3" font-family="Arial Bold" font-size="18.00" fill="#000000">user_item</text>
<text text-anchor="start" x="793.3759" y="-145.3" font-family="Arial" font-size="14.00" fill="#000000"> </text>
<text text-anchor="start" x="797.2665" y="-145.3" font-family="Arial" font-size="14.00" fill="#666666">[BASE TABLE]</text>
<polygon fill="none" stroke="#000000" points="707.5,-102.5 707.5,-132.5 897.5,-132.5 897.5,-102.5 707.5,-102.5"/>
<text text-anchor="start" x="714.5" y="-113.9" font-family="Arial" font-size="14.00" fill="#000000">user_id </text>
<text text-anchor="start" x="764.2882" y="-113.9" font-family="Arial" font-size="14.00" fill="#666666">[bigint]</text>
<polygon fill="none" stroke="#000000" points="707.5,-72.5 707.5,-102.5 897.5,-102.5 897.5,-72.5 707.5,-72.5"/>
<text text-anchor="start" x="714.5" y="-83.9" font-family="Arial" font-size="14.00" fill="#000000">item_id </text>
<text text-anchor="start" x="763.5028" y="-83.9" font-family="Arial" font-size="14.00" fill="#666666">[bigint]</text>
<polygon fill="none" stroke="#000000" points="707.5,-42.5 707.5,-72.5 897.5,-72.5 897.5,-42.5 707.5,-42.5"/>
<text text-anchor="start" x="714.5" y="-53.9" font-family="Arial" font-size="14.00" fill="#000000">count </text>
<text text-anchor="start" x="752.629" y="-53.9" font-family="Arial" font-size="14.00" fill="#666666">[bigint]</text>
</g>
<!-- user_monster -->
<g id="node4" class="node">
<title>user_monster</title>
<polygon fill="#efefef" stroke="transparent" points="1002.5,-132.5 1002.5,-167.5 1223.5,-167.5 1223.5,-132.5 1002.5,-132.5"/>
<polygon fill="none" stroke="#000000" points="1002.5,-132.5 1002.5,-167.5 1223.5,-167.5 1223.5,-132.5 1002.5,-132.5"/>
<text text-anchor="start" x="1009.3651" y="-145.3" font-family="Arial Bold" font-size="18.00" fill="#000000">user_monster</text>
<text text-anchor="start" x="1119.3811" y="-145.3" font-family="Arial" font-size="14.00" fill="#000000"> </text>
<text text-anchor="start" x="1123.2717" y="-145.3" font-family="Arial" font-size="14.00" fill="#666666">[BASE TABLE]</text>
<polygon fill="none" stroke="#000000" points="1002.5,-102.5 1002.5,-132.5 1223.5,-132.5 1223.5,-102.5 1002.5,-102.5"/>
<text text-anchor="start" x="1009.5" y="-113.9" font-family="Arial" font-size="14.00" fill="#000000">user_id </text>
<text text-anchor="start" x="1059.2882" y="-113.9" font-family="Arial" font-size="14.00" fill="#666666">[bigint]</text>
<polygon fill="none" stroke="#000000" points="1002.5,-72.5 1002.5,-102.5 1223.5,-102.5 1223.5,-72.5 1002.5,-72.5"/>
<text text-anchor="start" x="1009.5" y="-83.9" font-family="Arial" font-size="14.00" fill="#000000">monster_id </text>
<text text-anchor="start" x="1082.622" y="-83.9" font-family="Arial" font-size="14.00" fill="#666666">[bigint]</text>
<polygon fill="none" stroke="#000000" points="1002.5,-42.5 1002.5,-72.5 1223.5,-72.5 1223.5,-42.5 1002.5,-42.5"/>
<text text-anchor="start" x="1009.5" y="-53.9" font-family="Arial" font-size="14.00" fill="#000000">exp </text>
<text text-anchor="start" x="1035.9558" y="-53.9" font-family="Arial" font-size="14.00" fill="#666666">[bigint]</text>
</g>
</g>
</svg>
